<?xml version="1.0" encoding="utf-8"?>
<!-- Generator: Adobe Illustrator 15.1.0, SVG Export Plug-In  -->
<!DOCTYPE svg PUBLIC "-//W3C//DTD SVG 1.1//EN" "http://www.w3.org/Graphics/SVG/1.1/DTD/svg11.dtd" [
	<!ENTITY ns_flows "http://ns.adobe.com/Flows/1.0/">
]>
<svg version="1.1"
	 xmlns="http://www.w3.org/2000/svg" xmlns:xlink="http://www.w3.org/1999/xlink" xmlns:a="http://ns.adobe.com/AdobeSVGViewerExtensions/3.0/"
	 x="0px" y="0px" width="86px" height="85px" viewBox="-3.64 -3.021 86 85"
	 overflow="visible" enable-background="new -3.64 -3.021 86 85" xml:space="preserve">
<defs>
</defs>
<path fill="#FFFFFF" d="M39.86,0C17.851,0,0.011,17.84,0,39.859C0.011,61.87,17.851,79.71,39.86,79.71
	c22.02,0,39.86-17.84,39.86-39.851C79.721,17.84,61.88,0,39.86,0z M54.71,42.479l1.301,3L59,52.37H20.721l3-6.891l1.3-3L39.86,8.29
	L54.71,42.479z M62.271,52.37l-2.99-6.891h7.73c-1.021,2.49-2.391,4.811-4.03,6.891H62.271z M60.28,55.37
	c0.01-0.011,0.021-0.011,0.021-0.021l0.01,0.021H60.28c-5.28,5.109-12.479,8.26-20.42,8.26s-15.14-3.15-20.42-8.26
	c-0.01,0-0.01,0-0.021,0l0.011-0.011c0,0,0,0.011,0.01,0.011H60.28z M17.45,52.37h-0.71c-1.64-2.08-3-4.4-4.02-6.891h7.729
	L17.45,52.37z M3,39.859C3.011,29.67,7.13,20.47,13.801,13.79C20.25,7.34,29.091,3.27,38.88,3.01l-17.13,39.47H8.471l0.659,1.98
	c1.44,4.33,3.75,8.239,6.75,11.54l-3.6,8.29C6.511,57.779,3.011,49.239,3,39.859z M39.86,76.71c-9.81,0-18.72-3.82-25.32-10.09
	l3.62-8.341c5.74,5.19,13.351,8.351,21.7,8.351s15.97-3.16,21.71-8.36l3.62,8.351C58.591,72.88,49.681,76.71,39.86,76.71z
	 M67.45,64.279L63.851,56c2.99-3.301,5.31-7.21,6.74-11.54l0.659-1.98H57.98L40.841,3.01c9.8,0.26,18.63,4.33,25.079,10.78
	c6.681,6.68,10.801,15.88,10.801,26.069C76.721,49.229,73.23,57.77,67.45,64.279z"/>
</svg>
